<svg xmlns="http://www.w3.org/2000/svg" shape-rendering="geometricPrecision" text-rendering="geometricPrecision" image-rendering="optimizeQuality" fill-rule="evenodd" width="26" height="26" clip-rule="evenodd" viewBox="0 0 512 512"><path fill-rule="nonzero" d="M423.51 61.53c-5.02-5.03-10.91-7.51-17.75-7.51-6.82 0-12.8 2.48-17.75 7.51L360.96 88.5c-7.25-4.7-14.93-8.8-22.96-12.47-8.01-3.67-16.21-6.82-24.49-9.55V25c0-6.99-2.38-12.89-7.25-17.75C301.41 2.39 295.51 0 288.51 0h-52.06C229.8 0 224 2.39 218.97 7.25c-4.95 4.86-7.43 10.76-7.43 17.75v37.97c-8.7 2.05-17.15 4.61-25.26 7.78-8.19 3.15-15.95 6.73-23.3 10.75l-29.95-29.53c-4.69-4.95-10.4-7.51-17.32-7.51-6.83 0-12.71 2.56-17.75 7.51L61.53 88.5c-5.03 5.03-7.51 10.91-7.51 17.73 0 6.84 2.48 12.81 7.51 17.75l26.97 27.06c-4.7 7.25-8.79 14.93-12.46 22.95-3.68 8.02-6.83 16.23-9.56 24.5H25.01c-7 0-12.9 2.38-17.75 7.24C2.39 210.59 0 216.49 0 223.49v52.05c0 6.65 2.39 12.46 7.26 17.5 4.85 4.94 10.75 7.42 17.75 7.42h37.96c2.05 8.7 4.61 17.15 7.78 25.25 3.16 8.2 6.73 16.13 10.75 23.81l-29.53 29.44c-4.95 4.7-7.51 10.42-7.51 17.33 0 6.82 2.56 12.71 7.51 17.75l36.53 36.95c5.03 4.69 10.92 7 17.75 7 6.82 0 12.79-2.31 17.74-7l27.05-27.48c7.26 4.69 14.94 8.78 22.96 12.46 8.02 3.66 16.22 6.83 24.49 9.55V487c0 6.99 2.39 12.88 7.24 17.74 4.87 4.87 10.76 7.26 17.76 7.26h52.05c6.66 0 12.46-2.39 17.5-7.26 4.94-4.86 7.42-10.75 7.42-17.74v-37.97c8.7-2.05 17.15-4.61 25.25-7.77 8.2-3.16 16.14-6.74 23.81-10.76l29.44 29.53c4.7 4.95 10.49 7.51 17.51 7.51 7.06 0 12.87-2.56 17.57-7.51l36.95-36.52c4.69-5.05 7-10.92 7-17.75 0-6.82-2.31-12.8-7-17.75l-27.48-27.05c4.69-7.25 8.79-14.93 12.46-22.96 3.66-8.01 6.83-16.22 9.55-24.49H487c6.99 0 12.88-2.4 17.74-7.25 4.87-4.86 7.26-10.75 7.26-17.75v-52.06c0-6.65-2.39-12.45-7.26-17.49-4.86-4.95-10.75-7.42-17.74-7.42h-37.97c-2.05-8.37-4.61-16.73-7.77-25-3.16-8.36-6.74-16.21-10.76-23.56l29.53-29.95c4.95-4.69 7.51-10.42 7.51-17.32 0-6.83-2.56-12.71-7.51-17.75l-36.52-36.43zM182.92 243.61l12.39-27.91h46.73c-.59-1.99-1.61-3.93-3.08-5.84-1.49-1.9-3.3-3.55-5.46-4.94-2.16-1.4-4.56-2.54-7.23-3.39-2.67-.88-5.5-1.31-8.46-1.31h-34.89l12.39-27.91h133.77l-12.39 27.91h-32.31c1.27.98 2.45 2.12 3.55 3.43 1.1 1.27 2.07 2.58 2.91 4.01.81 1.4 1.53 2.79 2.12 4.19.55 1.39.93 2.71 1.1 3.85h35.02l-12.39 27.91h-25.34c-1.85 4.74-4.6 9.23-8.29 13.45-3.67 4.27-7.94 8.04-12.81 11.42-4.91 3.38-10.19 6.18-15.9 8.5a75.452 75.452 0 0 1-17.38 4.65l70.29 72.36h-55.57l-62.68-68.76V259.6h27.74c2.67 0 5.29-.42 7.87-1.31 2.62-.89 5.03-2.07 7.19-3.56 2.2-1.43 4.1-3.17 5.71-5.07 1.6-1.95 2.75-3.93 3.42-6.05h-58.02zM256 97.38c87.64 0 158.63 71.03 158.63 158.62 0 87.64-71.04 158.63-158.63 158.63-87.63 0-158.62-71.04-158.62-158.63 0-87.64 71.03-158.62 158.62-158.62z"/></svg>